<?xml version="1.0" encoding="UTF-8" standalone="no"?>
<svg
   xmlns:dc="http://purl.org/dc/elements/1.1/"
   xmlns:cc="http://creativecommons.org/ns#"
   xmlns:rdf="http://www.w3.org/1999/02/22-rdf-syntax-ns#"
   xmlns:svg="http://www.w3.org/2000/svg"
   xmlns="http://www.w3.org/2000/svg"
   viewBox="0 0 765 990"
   height="990"
   width="765"
   xml:space="preserve"
   version="1.1"
   id="svg2"><metadata
     id="metadata8"><rdf:RDF><cc:Work
         rdf:about=""><dc:format>image/svg+xml</dc:format><dc:type
           rdf:resource="http://purl.org/dc/dcmitype/StillImage" /></cc:Work></rdf:RDF></metadata><defs
     id="defs6" /><g
     transform="matrix(1.25,0,0,-1.25,0,990)"
     id="g10"><text
       id="text12"
       style="font-variant:normal;font-weight:normal;font-size:8.96640015px;font-family:CMBX9;-inkscape-font-specification:CMBX9;writing-mode:lr-tb;fill:#000000;fill-opacity:1;fill-rule:nonzero;stroke:none"
       transform="matrix(1,0,0,-1,134.765,669.938)"><tspan
         id="tspan14"
         y="0"
         x="0 6.4925704 11.650043 17.544556 20.49181 29.718237 35.023655">Table3.</tspan></text>
<text
       id="text16"
       style="font-variant:normal;font-weight:normal;font-size:8.96640015px;font-family:CMR9;-inkscape-font-specification:CMR9;writing-mode:lr-tb;fill:#000000;fill-opacity:1;fill-rule:nonzero;stroke:none"
       transform="matrix(1,0,0,-1,176.515,669.938)"><tspan
         id="tspan18"
         y="0"
         x="0 6.6557589 11.775573 19.658833 24.778646 29.381996 37.265255 42.636127 46.735565 50.370544 57.738235 61.373215 65.469063 70.076897 73.681389 76.241302 81.361115 89.743797 97.423523 101.52296 105.10683 110.22665 115.09451 120.21432 127.63312 132.24095 138.83125 142.41513 147.53494 155.4182 157.9781 162.58594 167.70575 172.31358 174.87349 178.45737 183.57718 188.69699 191.2569 196.37671 200.98454 207.31931 215.76566 224.6693 227.2292 231.32864 234.96361 237.52353 242.13136 251.02603 254.661 258.76044 263.36829 271.048 275.14743 280.01617 283.60007 288.20789 291.79175 294.35165 298.9595">ThefvebestscoringmethodsofthelongitudinalMSlesionsegmentation</tspan><tspan
         id="tspan20"
         y="10.959"
         x="-41.75 -37.914173 -32.794361 -28.186527 -25.626619 -23.066711 -18.967274 -13.84746 -9.2396269 -2.1274784 4.5282803 7.0881877 10.672057 18.804583 22.640408 27.760223 32.368057 34.927963 37.487869 41.587307 46.707123 51.314957 58.427105 62.062084 66.157936 70.76577 74.370262 78.469696 84.033348 88.645668 93.253502 95.813408 100.93322 108.61294 115.71613 119.81197 124.41981 128.02431 131.6288 135.72823 138.28813 142.89597 146.47984 149.03975 153.64758 161.78011 165.36398 172.02332 178.67012 182.25398 187.8266 194.86522 197.42514 201.52098 208.63313 212.72899 217.58788 221.68732 229.36703 233.46289 236.0228 240.12224 244.99098 248.57486 254.1385 259.51834 264.12619 267.76117 270.32108 273.90494 276.46484 281.06821 288.18036 293.30017 296.90466 301.00409">challengewithchallengescore,volumecorrelation(VC),Dicecoefcient,positivepre-</tspan><tspan
         id="tspan22"
         y="21.917999"
         x="-41.75 -36.630184 -34.070278 -29.974426 -26.390556 -23.83065 -19.227301 -12.859363 -8.5070724 -3.8992391 -1.3393319 3.7804825 10.139454 13.723324 19.994423 26.265524 33.17593 36.7598 41.588203 44.148113 48.247551 51.88253 54.442436 59.05027 66.429619 69.245064 73.852898 76.412804 80.047783 86.406754 91.786598 96.394424 100.0294 102.58932 106.17319 108.73309 113.33644 119.70438 123.30887 127.9167 131.50058 137.85954 141.44342 147.20253 153.21719 159.4883 166.27138 169.85524 174.68365 177.24356 181.343 184.97798 187.53789 192.14572 199.52507 203.10893 206.71342 211.83324 218.20117 223.57205 228.17989 231.81487 234.37477 237.95865 240.51855 245.13086 251.48984 255.09433 259.70215 263.28604 269.64499 273.22888 278.22586 284.88159 291.15271 297.93579 301.51965">dictivevalue(PPV),lesionfalsepositiverate(LFPR),lesiontruepositiverate(LTPR).</tspan><tspan
         id="tspan24"
         y="32.876999"
         x="-41.75 -34.711376 -32.15147 -28.055616 -23.956179 -17.73798 -11.466881 -5.1957803 1.714624 7.9238558 13.682975 19.697636 25.968737 36.41011 41.017941 46.137756 54.915863 59.90387 66.559631 72.830727 83.272102 87.879936 91.484428 99.233192 104.353 108.45245 113.57226 118.18009 121.76396 125.8634 134.64151 137.20142 145.97952 151.35039 155.44983 159.05432 163.15018 167.2496 172.11836 179.35156 183.9594 189.07921 197.85732 203.23715 207.33659 210.97157 218.20477 222.55705 227.16489 229.72479 234.8446 238.94405 246.23732 250.84515 255.96497 263.20712 267.81497 274.27972 279.39954 284.01187 291.76959 296.37744 299.98193">Dice,PPV,LFPRandLTPRaredenotedinpercentandbestvaluesoutoffveare</tspan><tspan
         id="tspan26"
         y="43.835999"
         x="-41.75 -36.630184 -33.025692 -30.465786 -25.605997 -22.022127 -17.922689 -9.3956423 -6.8357348 1.6823449 7.0532184 11.661052 14.220959 19.340773 25.307913 28.634447 37.152527 42.272343 45.876835 50.484669 54.320492 58.932808 63.032246 66.616119 73.649361 80.054062 87.551765 92.671577 96.771019 101.89083 106.49866 110.08253 117.58024 121.16411 126.28392 133.78163 137.38612 141.48555 144.04547 148.65329 152.23717 154.79707 159.40939 166.90709 173.30283 177.40227 179.96217 184.57001 189.43877 196.4209 201.02873 207.24245 211.34189 215.94972 219.79451 228.31259 235.99231 240.09175 243.67561 247.28011 249.84001 257.33414 261.94196 270.46902 274.05289 279.1727 286.67041 291.79022 296.91003 301.51785">printedinbold.Inbracketswedenotetherelativeweightofeachmetriconthefnal</tspan><tspan
         id="tspan28"
         y="54.794998"
         x="-41.75 -38.115021 -34.019169 -29.411337 -25.806845 -21.707407">score.</tspan></text>
<g
       transform="translate(134.765,603.786)"
       id="g30"><path
         id="path32"
         style="fill:none;stroke:#000000;stroke-width:0.79699999;stroke-linecap:butt;stroke-linejoin:miter;stroke-miterlimit:10;stroke-dasharray:none;stroke-opacity:1"
         d="M 0,0 320.692,0" /></g><text
       id="text34"
       style="font-variant:normal;font-weight:normal;font-size:8.96640015px;font-family:CMR9;-inkscape-font-specification:CMR9;writing-mode:lr-tb;fill:#000000;fill-opacity:1;fill-rule:nonzero;stroke:none"
       transform="matrix(1,0,0,-1,207.474,592.928)"><tspan
         id="tspan36"
         y="0"
         x="0 3.6349785 7.7308302 12.338663 15.943156 32.263798 38.914177 48.645409">scoreVC(</tspan></text>
<text
       id="text38"
       style="font-variant:normal;font-weight:normal;font-size:5.9776001px;font-family:CMR6;-inkscape-font-specification:CMR6;writing-mode:lr-tb;fill:#000000;fill-opacity:1;fill-rule:nonzero;stroke:none"
       transform="matrix(1,0,0,-1,259.701,595.17)"><tspan
         id="tspan40"
         y="0"
         x="0">1</tspan></text>
<text
       id="text42"
       style="font-variant:normal;font-weight:normal;font-size:8.96640015px;font-family:CMMI9;-inkscape-font-specification:CMMI9;writing-mode:lr-tb;fill:#000000;fill-opacity:1;fill-rule:nonzero;stroke:none"
       transform="matrix(1,0,0,-1,262.842,592.928)"><tspan
         id="tspan44"
         y="0"
         x="0">/</tspan></text>
<text
       id="text46"
       style="font-variant:normal;font-weight:normal;font-size:5.9776001px;font-family:CMR6;-inkscape-font-specification:CMR6;writing-mode:lr-tb;fill:#000000;fill-opacity:1;fill-rule:nonzero;stroke:none"
       transform="matrix(1,0,0,-1,266.426,592.928)"><tspan
         id="tspan48"
         y="0"
         x="0">4</tspan></text>
<text
       id="text50"
       style="font-variant:normal;font-weight:normal;font-size:8.96640015px;font-family:CMR9;-inkscape-font-specification:CMR9;writing-mode:lr-tb;fill:#000000;fill-opacity:1;fill-rule:nonzero;stroke:none"
       transform="matrix(1,0,0,-1,270.079,592.928)"><tspan
         id="tspan52"
         y="0"
         x="0 6.3724203 13.411044 15.970952 20.066803 27.241716">)Dice(</tspan></text>
<text
       id="text54"
       style="font-variant:normal;font-weight:normal;font-size:5.9776001px;font-family:CMR6;-inkscape-font-specification:CMR6;writing-mode:lr-tb;fill:#000000;fill-opacity:1;fill-rule:nonzero;stroke:none"
       transform="matrix(1,0,0,-1,300.901,595.17)"><tspan
         id="tspan56"
         y="0"
         x="0">1</tspan></text>
<text
       id="text58"
       style="font-variant:normal;font-weight:normal;font-size:8.96640015px;font-family:CMMI9;-inkscape-font-specification:CMMI9;writing-mode:lr-tb;fill:#000000;fill-opacity:1;fill-rule:nonzero;stroke:none"
       transform="matrix(1,0,0,-1,304.042,592.928)"><tspan
         id="tspan60"
         y="0"
         x="0">/</tspan></text>
<text
       id="text62"
       style="font-variant:normal;font-weight:normal;font-size:5.9776001px;font-family:CMR6;-inkscape-font-specification:CMR6;writing-mode:lr-tb;fill:#000000;fill-opacity:1;fill-rule:nonzero;stroke:none"
       transform="matrix(1,0,0,-1,307.626,592.928)"><tspan
         id="tspan64"
         y="0"
         x="0">8</tspan></text>
<text
       id="text66"
       style="font-variant:normal;font-weight:normal;font-size:8.96640015px;font-family:CMR9;-inkscape-font-specification:CMR9;writing-mode:lr-tb;fill:#000000;fill-opacity:1;fill-rule:nonzero;stroke:none"
       transform="matrix(1,0,0,-1,311.279,592.928)"><tspan
         id="tspan68"
         y="0"
         x="0 6.3724203 12.64352 18.914621 28.900501">)PPV(</tspan></text>
<text
       id="text70"
       style="font-variant:normal;font-weight:normal;font-size:5.9776001px;font-family:CMR6;-inkscape-font-specification:CMR6;writing-mode:lr-tb;fill:#000000;fill-opacity:1;fill-rule:nonzero;stroke:none"
       transform="matrix(1,0,0,-1,343.76,595.17)"><tspan
         id="tspan72"
         y="0"
         x="0">1</tspan></text>
<text
       id="text74"
       style="font-variant:normal;font-weight:normal;font-size:8.96640015px;font-family:CMMI9;-inkscape-font-specification:CMMI9;writing-mode:lr-tb;fill:#000000;fill-opacity:1;fill-rule:nonzero;stroke:none"
       transform="matrix(1,0,0,-1,346.901,592.928)"><tspan
         id="tspan76"
         y="0"
         x="0">/</tspan></text>
<text
       id="text78"
       style="font-variant:normal;font-weight:normal;font-size:5.9776001px;font-family:CMR6;-inkscape-font-specification:CMR6;writing-mode:lr-tb;fill:#000000;fill-opacity:1;fill-rule:nonzero;stroke:none"
       transform="matrix(1,0,0,-1,350.484,592.928)"><tspan
         id="tspan80"
         y="0"
         x="0">8</tspan></text>
<text
       id="text82"
       style="font-variant:normal;font-weight:normal;font-size:8.96640015px;font-family:CMR9;-inkscape-font-specification:CMR9;writing-mode:lr-tb;fill:#000000;fill-opacity:1;fill-rule:nonzero;stroke:none"
       transform="matrix(1,0,0,-1,354.137,592.928)"><tspan
         id="tspan84"
         y="0"
         x="0 6.3724203 12.131539 18.1462 24.417301 34.275856">)LFPR(</tspan></text>
<text
       id="text86"
       style="font-variant:normal;font-weight:normal;font-size:5.9776001px;font-family:CMR6;-inkscape-font-specification:CMR6;writing-mode:lr-tb;fill:#000000;fill-opacity:1;fill-rule:nonzero;stroke:none"
       transform="matrix(1,0,0,-1,391.994,595.17)"><tspan
         id="tspan88"
         y="0"
         x="0">1</tspan></text>
<text
       id="text90"
       style="font-variant:normal;font-weight:normal;font-size:8.96640015px;font-family:CMMI9;-inkscape-font-specification:CMMI9;writing-mode:lr-tb;fill:#000000;fill-opacity:1;fill-rule:nonzero;stroke:none"
       transform="matrix(1,0,0,-1,395.135,592.928)"><tspan
         id="tspan92"
         y="0"
         x="0">/</tspan></text>
<text
       id="text94"
       style="font-variant:normal;font-weight:normal;font-size:5.9776001px;font-family:CMR6;-inkscape-font-specification:CMR6;writing-mode:lr-tb;fill:#000000;fill-opacity:1;fill-rule:nonzero;stroke:none"
       transform="matrix(1,0,0,-1,398.718,592.928)"><tspan
         id="tspan96"
         y="0"
         x="0">4</tspan></text>
<text
       id="text98"
       style="font-variant:normal;font-weight:normal;font-size:8.96640015px;font-family:CMR9;-inkscape-font-specification:CMR9;writing-mode:lr-tb;fill:#000000;fill-opacity:1;fill-rule:nonzero;stroke:none"
       transform="matrix(1,0,0,-1,402.371,592.928)"><tspan
         id="tspan100"
         y="0"
         x="0 6.3724203 11.360429 18.016188 24.287287 34.145844">)LTPR(</tspan></text>
<text
       id="text102"
       style="font-variant:normal;font-weight:normal;font-size:5.9776001px;font-family:CMR6;-inkscape-font-specification:CMR6;writing-mode:lr-tb;fill:#000000;fill-opacity:1;fill-rule:nonzero;stroke:none"
       transform="matrix(1,0,0,-1,440.1,595.17)"><tspan
         id="tspan104"
         y="0"
         x="0">1</tspan></text>
<text
       id="text106"
       style="font-variant:normal;font-weight:normal;font-size:8.96640015px;font-family:CMMI9;-inkscape-font-specification:CMMI9;writing-mode:lr-tb;fill:#000000;fill-opacity:1;fill-rule:nonzero;stroke:none"
       transform="matrix(1,0,0,-1,443.241,592.928)"><tspan
         id="tspan108"
         y="0"
         x="0">/</tspan></text>
<text
       id="text110"
       style="font-variant:normal;font-weight:normal;font-size:5.9776001px;font-family:CMR6;-inkscape-font-specification:CMR6;writing-mode:lr-tb;fill:#000000;fill-opacity:1;fill-rule:nonzero;stroke:none"
       transform="matrix(1,0,0,-1,446.825,592.928)"><tspan
         id="tspan112"
         y="0"
         x="0">4</tspan></text>
<text
       id="text114"
       style="font-variant:normal;font-weight:normal;font-size:8.96640015px;font-family:CMR9;-inkscape-font-specification:CMR9;writing-mode:lr-tb;fill:#000000;fill-opacity:1;fill-rule:nonzero;stroke:none"
       transform="matrix(1,0,0,-1,450.478,592.928)"><tspan
         id="tspan116"
         y="0"
         x="0">)</tspan></text>
<g
       transform="translate(134.765,587.675)"
       id="g118"><path
         id="path120"
         style="fill:none;stroke:#000000;stroke-width:0.498;stroke-linecap:butt;stroke-linejoin:miter;stroke-miterlimit:10;stroke-dasharray:none;stroke-opacity:1"
         d="M 0,0 320.692,0" /></g><text
       id="text122"
       style="font-variant:normal;font-weight:normal;font-size:8.96640015px;font-family:CMR9;-inkscape-font-specification:CMR9;writing-mode:lr-tb;fill:#000000;fill-opacity:1;fill-rule:nonzero;stroke:none"
       transform="matrix(1,0,0,-1,136.159,576.967)"><tspan
         id="tspan124"
         y="0"
         x="0 4.6078329 8.2428112 15.922533 19.557512 25.192894 28.776764 33.89658 37.501072 42.108906 47.479778 52.087612 55.722588 59.822029 64.941841">asmsl(proposed)</tspan></text>
<text
       id="text126"
       style="font-variant:normal;font-weight:normal;font-size:8.96640015px;font-family:CMBX9;-inkscape-font-specification:CMBX9;writing-mode:lr-tb;fill:#000000;fill-opacity:1;fill-rule:nonzero;stroke:none"
       transform="matrix(1,0,0,-1,207.474,576.967)"><tspan
         id="tspan128"
         y="0"
         x="0 5.305419 10.610838 13.558093 18.863512 24.168932">92.076</tspan></text>
<text
       id="text130"
       style="font-variant:normal;font-weight:normal;font-size:8.96640015px;font-family:CMR9;-inkscape-font-specification:CMR9;writing-mode:lr-tb;fill:#000000;fill-opacity:1;fill-rule:nonzero;stroke:none"
       transform="matrix(1,0,0,-1,239.736,576.967)"><tspan
         id="tspan132"
         y="0"
         x="0 4.6078329 7.1677403 11.775573 16.383406 36.718304 41.326138 45.933971 48.493877 53.101711">0.86262.98</tspan></text>
<text
       id="text134"
       style="font-variant:normal;font-weight:normal;font-size:8.96640015px;font-family:CMBX9;-inkscape-font-specification:CMBX9;writing-mode:lr-tb;fill:#000000;fill-opacity:1;fill-rule:nonzero;stroke:none"
       transform="matrix(1,0,0,-1,317.652,576.967)"><tspan
         id="tspan136"
         y="0"
         x="0 5.305419 10.610838 13.558093 18.863512">84.46</tspan></text>
<text
       id="text138"
       style="font-variant:normal;font-weight:normal;font-size:8.96640015px;font-family:CMR9;-inkscape-font-specification:CMR9;writing-mode:lr-tb;fill:#000000;fill-opacity:1;fill-rule:nonzero;stroke:none"
       transform="matrix(1,0,0,-1,360.511,576.967)"><tspan
         id="tspan140"
         y="0"
         x="0 4.6078329 9.2156658 11.775573 16.383406 48.231163 52.838997 57.446827 60.006737 64.614571">20.1348.71</tspan><tspan
         id="tspan142"
         y="15.567"
         x="-224.35201 -219.23219 -216.67227">nic</tspan></text>
<g
       transform="translate(148.487,561.6)"
       id="g144"><path
         id="path146"
         style="fill:none;stroke:#000000;stroke-width:0.398;stroke-linecap:butt;stroke-linejoin:miter;stroke-miterlimit:10;stroke-dasharray:none;stroke-opacity:1"
         d="M 0,0 2.765,0" /></g><text
       id="text148"
       style="font-variant:normal;font-weight:normal;font-size:8.96640015px;font-family:CMR9;-inkscape-font-specification:CMR9;writing-mode:lr-tb;fill:#000000;fill-opacity:1;fill-rule:nonzero;stroke:none"
       transform="matrix(1,0,0,-1,151.252,561.4)"><tspan
         id="tspan150"
         y="0"
         x="0 4.8633752 7.4232826 11.519135 16.126966 19.731461 24.339293">vicorob</tspan></text>
<g
       transform="translate(181.264,561.6)"
       id="g152"><path
         id="path154"
         style="fill:none;stroke:#000000;stroke-width:0.398;stroke-linecap:butt;stroke-linejoin:miter;stroke-miterlimit:10;stroke-dasharray:none;stroke-opacity:1"
         d="M 0,0 2.765,0" /></g><text
       id="text156"
       style="font-variant:normal;font-weight:normal;font-size:8.96640015px;font-family:CMR9;-inkscape-font-specification:CMR9;writing-mode:lr-tb;fill:#000000;fill-opacity:1;fill-rule:nonzero;stroke:none"
       transform="matrix(1,0,0,-1,184.028,561.4)"><tspan
         id="tspan158"
         y="0"
         x="0 3.5838702 7.6833081 11.318287 23.447136 28.05497 32.662804 35.22271 39.830544 44.438374 55.708244 60.316074 62.875984 67.483818 72.091652 92.426544 97.034378 101.64221 104.20212 108.80995 133.62805 138.23589 142.84372 145.40363 150.01146 176.47937 181.0872 185.69504 188.25494 192.86278 224.7195 229.32733 233.93517 236.49507 241.10291">test91.4400.84064.2979.2515.4638.72</tspan><tspan
         id="tspan160"
         y="10.958"
         x="-47.868999 -40.958595 -37.632061">VIC</tspan></text>
<g
       transform="translate(153.604,550.641)"
       id="g162"><path
         id="path164"
         style="fill:none;stroke:#000000;stroke-width:0.398;stroke-linecap:butt;stroke-linejoin:miter;stroke-miterlimit:10;stroke-dasharray:none;stroke-opacity:1"
         d="M 0,0 2.765,0" /></g><text
       id="text166"
       style="font-variant:normal;font-weight:normal;font-size:8.96640015px;font-family:CMR9;-inkscape-font-specification:CMR9;writing-mode:lr-tb;fill:#000000;fill-opacity:1;fill-rule:nonzero;stroke:none"
       transform="matrix(1,0,0,-1,156.369,550.442)"><tspan
         id="tspan168"
         y="0"
         x="0 6.6557589">TF</tspan></text>
<g
       transform="translate(169.592,550.641)"
       id="g170"><path
         id="path172"
         style="fill:none;stroke:#000000;stroke-width:0.398;stroke-linecap:butt;stroke-linejoin:miter;stroke-miterlimit:10;stroke-dasharray:none;stroke-opacity:1"
         d="M 0,0 2.765,0" /></g><text
       id="text174"
       style="font-variant:normal;font-weight:normal;font-size:8.96640015px;font-family:CMR9;-inkscape-font-specification:CMR9;writing-mode:lr-tb;fill:#000000;fill-opacity:1;fill-rule:nonzero;stroke:none"
       transform="matrix(1,0,0,-1,172.357,550.442)"><tspan
         id="tspan176"
         y="0"
         x="0 6.0146613 12.925066 18.684185 35.113319 39.721153 44.328983 46.888893 51.496727 56.104557 67.383392 71.991226 74.551132 79.150002 83.757835 104.09273 108.70056 113.3084 115.8683 120.47614 145.29424 149.90207 154.5099 157.06981 161.67764">FULL91.3310.86663.0578.67</tspan></text>
<text
       id="text178"
       style="font-variant:normal;font-weight:normal;font-size:8.96640015px;font-family:CMBX9;-inkscape-font-specification:CMBX9;writing-mode:lr-tb;fill:#000000;fill-opacity:1;fill-rule:nonzero;stroke:none"
       transform="matrix(1,0,0,-1,360.511,550.442)"><tspan
         id="tspan180"
         y="0"
         x="0 5.305419 10.610838 13.558093 18.863512">15.29</tspan></text>
<text
       id="text182"
       style="font-variant:normal;font-weight:normal;font-size:8.96640015px;font-family:CMR9;-inkscape-font-specification:CMR9;writing-mode:lr-tb;fill:#000000;fill-opacity:1;fill-rule:nonzero;stroke:none"
       transform="matrix(1,0,0,-1,408.745,550.442)"><tspan
         id="tspan184"
         y="0"
         x="0 4.6078329 9.2156658 11.775573 16.383406">36.40</tspan><tspan
         id="tspan186"
         y="10.959"
         x="-272.586 -264.13965 -260.81311 -254.54202 -248.7829 -241.8725">MIPLAB</tspan></text>
<g
       transform="translate(173.951,539.682)"
       id="g188"><path
         id="path190"
         style="fill:none;stroke:#000000;stroke-width:0.398;stroke-linecap:butt;stroke-linejoin:miter;stroke-miterlimit:10;stroke-dasharray:none;stroke-opacity:1"
         d="M 0,0 2.765,0" /></g><text
       id="text192"
       style="font-variant:normal;font-weight:normal;font-size:8.96640015px;font-family:CMR9;-inkscape-font-specification:CMR9;writing-mode:lr-tb;fill:#000000;fill-opacity:1;fill-rule:nonzero;stroke:none"
       transform="matrix(1,0,0,-1,176.716,539.483)"><tspan
         id="tspan194"
         y="0"
         x="0 4.8633752 30.757442 35.365276 39.973106 42.533016 47.140846 51.74868 63.018551 67.626381 70.186287 74.794121 79.401955 99.736855 104.34469 108.95252 111.51243 116.12026 140.93835 145.54619 150.15402 152.71393 157.32176 183.79865 188.40648 193.01431 195.57422 200.18205 232.02982 236.63765 241.24547 243.80539 248.41321">v391.2670.82362.7479.9723.1745.40</tspan><tspan
         id="tspan196"
         y="10.959"
         x="-40.556999 -32.877277 -30.317371 -25.709538">miac</tspan></text>
<g
       transform="translate(155.655,528.723)"
       id="g198"><path
         id="path200"
         style="fill:none;stroke:#000000;stroke-width:0.398;stroke-linecap:butt;stroke-linejoin:miter;stroke-miterlimit:10;stroke-dasharray:none;stroke-opacity:1"
         d="M 0,0 2.765,0" /></g><text
       id="text202"
       style="font-variant:normal;font-weight:normal;font-size:8.96640015px;font-family:CMR9;-inkscape-font-specification:CMR9;writing-mode:lr-tb;fill:#000000;fill-opacity:1;fill-rule:nonzero;stroke:none"
       transform="matrix(1,0,0,-1,158.42,528.524)"><tspan
         id="tspan204"
         y="0"
         x="0 3.6044929 7.7039309 11.338909 16.458723 19.018631 22.602501 29.303989 31.863895 36.471729 49.056072 53.663902 58.271736 60.831646 65.439476 70.04731">results[1]91.011</tspan></text>
<text
       id="text206"
       style="font-variant:normal;font-weight:normal;font-size:8.96640015px;font-family:CMBX9;-inkscape-font-specification:CMBX9;writing-mode:lr-tb;fill:#000000;fill-opacity:1;fill-rule:nonzero;stroke:none"
       transform="matrix(1,0,0,-1,239.736,528.524)"><tspan
         id="tspan208"
         y="0"
         x="0 5.305419 8.2526741 13.558093 18.863512 36.712925 42.018345 47.323761 50.271019 55.576439">0.86766.78</tspan></text>
<text
       id="text210"
       style="font-variant:normal;font-weight:normal;font-size:8.96640015px;font-family:CMR9;-inkscape-font-specification:CMR9;writing-mode:lr-tb;fill:#000000;fill-opacity:1;fill-rule:nonzero;stroke:none"
       transform="matrix(1,0,0,-1,317.652,528.524)"><tspan
         id="tspan212"
         y="0"
         x="0 4.6078329 9.2156658 11.775573 16.383406 42.860291 47.468121 52.075954 54.63586 59.243694">74.0540.73</tspan></text>
<text
       id="text214"
       style="font-variant:normal;font-weight:normal;font-size:8.96640015px;font-family:CMBX9;-inkscape-font-specification:CMBX9;writing-mode:lr-tb;fill:#000000;fill-opacity:1;fill-rule:nonzero;stroke:none"
       transform="matrix(1,0,0,-1,408.745,528.524)"><tspan
         id="tspan216"
         y="0"
         x="0 5.305419 10.610838 13.558093 18.863512">58.29</tspan></text>
<g
       transform="translate(134.765,523.122)"
       id="g218"><path
         id="path220"
         style="fill:none;stroke:#000000;stroke-width:0.79699999;stroke-linecap:butt;stroke-linejoin:miter;stroke-miterlimit:10;stroke-dasharray:none;stroke-opacity:1"
         d="M 0,0 320.692,0" /></g><text
       id="text222"
       style="font-variant:normal;font-weight:normal;font-size:11.9552002px;font-family:CMBX12;-inkscape-font-specification:CMBX12;writing-mode:lr-tb;fill:#000000;fill-opacity:1;fill-rule:nonzero;stroke:none"
       transform="matrix(1,0,0,-1,134.765,489.561)"><tspan
         id="tspan224"
         y="0"
         x="0 20.1744 30.48337 34.219368 39.525085 45.502686 52.974686 58.280403 63.586121 67.322121 74.046921">4Discussion</tspan></text>
<text
       id="text226"
       style="font-variant:normal;font-weight:normal;font-size:9.96259975px;font-family:CMR10;-inkscape-font-specification:CMR10;writing-mode:lr-tb;fill:#000000;fill-opacity:1;fill-rule:nonzero;stroke:none"
       transform="matrix(1,0,0,-1,134.765,464.345)"><tspan
         id="tspan228"
         y="0"
         x="0 9.4126644 18.781494 23.208874 28.744093 33.171474 38.152775 43.687992 48.94426 52.818718 57.246098 61.148445 65.575829 76.062462 80.489838 85.7481 91.552307 95.979691 100.40707 104.28152 108.7089 119.19553 124.17683 133.04753 139.96358 144.39095 147.15855 154.87758 159.85889 168.72958 173.98984 179.52505 190.00172 195.8159 200.24329 205.7785 210.48085 215.73911 218.50671 223.48802 232.33182 235.09943 245.5761 250.56737 256.09262 264.94638 269.37375 274.63202 280.16724 282.93484 287.91614 291.81851 296.7998 300.67426 305.65555 309.55792 319.75763 323.68686 327.56131 333.09653 338.63177 343.06314">Weencounteredexpectedaswellasoddbehaviorinourexploratorystudy.</tspan><tspan
         id="tspan230"
         y="11.955"
         x="0 7.1949897 12.17629 17.432558 21.307013 25.209364 30.190662 34.093014 41.582897 45.457352 52.660313 59.855301 65.390518 70.371819 76.467934 82.003159 86.984459 93.145332 98.959503 103.38688 107.81426 115.57114 120.55244 126.08766 131.34592 134.11353 138.04279 142.47015 150.237 153.28157 158.26288 164.38689 167.1545 174.92134 178.79579 184.32104 190.98006 193.74767 196.51527 200.38972 204.81711 208.71945 213.70076 217.57521 223.11043 227.01279 233.66182 236.42943 241.41074 246.39203 249.15964 254.15887 259.69409 263.59644 268.57776 274.11298 279.64819 282.4158 287.95102 295.15399 297.9216 303.45682 306.50137 311.4827 315.38504 323.68686 328.66815 332.54263 335.31024 340.29153">Contrarytowhathasbeenadvisedforintheliterature[12],droppinginformation</tspan><tspan
         id="tspan232"
         y="23.910999"
         x="0 3.0445704 6.9469209 11.928221 23.188948 27.063402 32.598625 39.994858 43.924107 47.798561 52.779861 56.654316 64.040588 70.956627 75.384003 78.151619 83.132919 88.389183 92.263641 99.161743 103.06409 107.49147 111.42072 116.95594 119.72356 123.59801 130.48615 133.25375 141.74788 147.56204 151.98943 155.86388 159.73834 164.16571 171.03693 174.92931 179.36665 184.34795 189.87321 192.64082 197.62212 201.52448 204.29208 208.71945 213.70076 217.57521 220.34282 225.32413 230.85934 236.59581 241.5771 248.46526 252.33971 257.87494 265.2612 272.87164 275.63925 280.06662 287.46286 291.89023 297.15048 301.57785 309.8797 314.30707 317.07468 321.50208 326.75833 330.63278 337.52094 340.28854">fromthestateweightsresultsinbetterregularization,astheDicecoefcientsin</tspan><tspan
         id="tspan234"
         y="35.866001"
         x="0 6.368094 11.349394 16.884615 19.652225 27.616327 36.13435 46.727581 49.495193 55.030415 60.565636 63.333244 67.76062 72.74192 76.616379 81.043762 87.348091 94.543083 100.0783 102.84591 110.31188 116.12606 120.55344 126.08866 130.791 136.04927 138.81688 143.79817 151.23724 155.66463 160.64594 166.18115 168.94876 178.02071 183.83487 191.79898 197.3342 202.86942 210.83353 214.70798 223.226 227.10045 232.63568 240.59978 243.64435 248.62566 253.05302 260.4642 264.33865 269.87387 274.85519 282.26636 289.1824 297.15646 302.13776 307.67297 310.44058 319.23557 322.00317 326.9845 332.51971 337.50101 341.3934">Table1Bindicate.Thisbehaviorcouldbeduetothefactthatweonlyignore</tspan><tspan
         id="tspan236"
         y="47.820999"
         x="0 5.5352206 10.516521 14.418871 23.065411 28.046711 35.853405 39.727859 45.263081 54.462547 59.997765 63.900116 68.327499 73.585754 76.353363 81.334663 86.869888 95.561256 99.490509 103.36497 108.34626 112.22072 121.42018 127.23436 131.66174 140.3262 143.09383 146.96828 151.39566 155.298 160.27931 164.15376 166.92137 171.90266 182.20998 187.19127 192.7265 203.0338 207.18224 212.71745 217.69875 223.23398 228.7692 233.19656 235.96419 243.49391 247.09142 252.35764 256.23209 260.65948 264.56183 268.9892 272.91846 276.79291 279.56052 285.09573 290.07703 292.84464 302.86502 306.7395 312.27472 317.25601 322.79123 327.77252 333.30774 340.84744">partofthepreviousstateperiterationandchannel.Interestinglythough,a</tspan><tspan
         id="tspan238"
         y="59.776001"
         x="0 4.4273796 9.408679 17.431561 22.966782 25.734392 31.269613 36.250912 40.125366 42.892979 47.874279 57.235138 62.216438 69.086647 76.697075 87.717705 92.699005 102.05986 107.86407 112.84538 116.71983 126.08069 128.8483 134.38351 139.91875 145.45396 153.15405 158.13536 163.67058 173.03143 176.96068 180.83514 185.81644 189.69089 197.94391 203.47913 207.38148 212.63177 218.16699 223.70221 228.12959 232.55698 240.31186 247.23785 252.21916 256.12152 260.05075 268.30377 272.20612 276.63351 280.56274 286.09799 288.8656 292.74005 296.66928 303.26254 307.68991 312.66922 317.09662 326.45746 333.65247 336.42007 340.29453">combinationofDConbothinputandstateproducesworseresults,evenwith</tspan><tspan
         id="tspan240"
         y="71.731003"
         x="0 8.3088083 12.211159 16.638538 22.173759 27.708979 32.13636 36.56374 45.416504 50.951725 54.854076 59.835377 68.698105 72.600456 77.581757 81.456207 85.883591 91.978706 99.450661 106.69746 112.23267 116.13503 121.11633 126.9305 131.9118 137.44702 144.64899 148.52344 152.95082 158.48604 164.02126 171.26805 175.1425 183.45131 188.98654 192.88889 197.87019 200.6378 205.61909 211.15431 219.46312 223.33759 227.23993 232.22124 234.98885 240.52406 243.29167 248.81693 253.79823 259.89334 262.93793 268.47314 272.37549 276.24994 281.78516 286.21255 293.44241 297.86978 303.12805 308.93225 313.3696 317.26199 320.0296 328.33142 332.76877 338.02505 341.89951">areduceddroprate.Asdropouttendstoprolongtraining,furtherexperiments</tspan><tspan
         id="tspan242"
         y="83.685997"
         x="0 7.1949897 9.9625998 13.837055 23.656193 26.423803 31.405104 36.940323 41.921623 46.349003 54.525311 58.399765 62.302116 67.283417 70.051025 75.586243 78.353859 83.889076 93.154297 97.028748 99.796364 108.0982 112.52557 120.72878 129.03061 131.79822 136.77953 142.04576 150.19417 154.12341 159.65863 164.08601 173.90515 176.67276 179.44037 184.42168 189.67795 197.83632 202.81761 212.62679 216.50125 222.03647 224.80408 233.01724 237.44463 243.25581 247.68318 252.11057 255.98502 263.03656 270.50851 276.04373 281.02502 284.89948 290.43469 294.86209 303.03839 306.96762 312.50284 316.40521 321.94043 325.84277 328.61038 332.53964 335.30725 340.84247">withlongertrainingtimesmightshedlightonthisefect.Anothersurprising</tspan><tspan
         id="tspan244"
         y="95.641998"
         x="0 3.9023504 8.32973 12.258979 17.794199 20.56181 28.251942 31.019552 38.774441 42.648895 48.184116 56.42717 59.194782 64.730003 69.711304 75.246521 78.01413 80.781746 83.549355 87.144852 96.228752 101.21005 108.0703 115.12681 126.4244 130.29886 139.09583 143.02509 148.5603 152.46265 157.99786 162.97917 166.90842 174.65335 180.18857 185.16986 189.09912 193.52649 196.2941 199.06172 204.59694 212.84996 220.46039 223.228 227.65536 235.89842 239.82768 244.25505 249.23636 253.1387 257.5661 265.32098 268.08859 277.43948 282.42078 287.95599 295.68399 301.21921 305.12155 309.54895 312.31656 315.08417 323.38599 326.15359 331.68881 336.67014 340.57248">resultistheinabilityofBNtosurpassbaselineDicescoresinourpreliminary</tspan><tspan
         id="tspan246"
         y="107.597"
         x="0 3.8744552 8.3018341 12.231084 16.105539 23.501774 26.269384 35.271587 41.639683 46.620983 52.156204 54.923813 62.818176 67.799477 74.034073 76.801682 85.803886 90.785187 93.552795 99.787392 104.48775 109.46905 113.3714 116.13901 121.12031 124.99477 127.76237 132.74367 138.2789 145.67513 152.59117 160.4955 164.36995 168.79733 172.72658 176.60103 181.02841 186.56363 192.79823 200.40866 205.94388 213.83824 217.71269 226.16098 230.03543 235.57066 243.46503 247.8924 252.8737 256.77606 260.67841 265.10577 267.87338 272.85471 276.72916 279.49677 284.47806 293.48026 296.24786 305.25009 310.23138 315.7666 323.13593 331.43777 334.20538 339.7406 342.50821">testsinTable1,inallvariationswetested.Duetothecorrelationinourmini-</tspan><tspan
         id="tspan248"
         y="119.552"
         x="0 5.5352206 10.516521 14.390976 18.539402 28.368504 33.349804 40.678291 45.659592 51.194813 59.906109 64.887413 70.42263 80.251732 84.12619 89.661407 98.372704 103.08302 108.06432 111.96667 117.22493 119.99255 125.52776 134.79298 141.70901 146.1364 148.90401 153.88531 159.14157 163.01604 171.23917 174.00677 183.82591 187.70036 193.23558 201.95685 206.38423 211.36552 215.29477 224.00607 228.98737 236.32582 240.20027 245.7355 254.44679 258.34915 263.88437 269.41959 274.9548 277.72241 283.25763 292.52286 297.23517 302.21448 306.64185 310.54419 315.52551 320.50681 324.93417 331.98572 335.86017 341.39539">batchofoneandthevaryingweightsinthecaseoftherunningaverage,the</tspan><tspan
         id="tspan250"
         y="131.507"
         x="0 4.9812999 8.9105492 12.839799 18.375019 26.676853 32.212074 36.086529 38.854141 43.835442 52.369404 57.904625 63.164875 67.592255 74.520248 80.055466 85.036766 91.909966 97.44519 102.42648 105.1941 113.72806 117.60252 123.13773 128.11903 134.99223 138.86668 144.40192 151.838 155.76724 159.64169 164.623 168.49745 171.26506 175.19432 179.06877 181.83638 186.26376 193.19176 198.17305 204.21637 209.19766 214.73288 221.63397 229.93581 232.70341 238.23865 241.00626 244.32678 249.86201 254.84331 258.71777 262.86618 271.40015 276.38144 280.28381 287.71988 291.64914 294.41675 302.7186 305.48621 308.25381 313.23511 320.1362 324.01065 331.99069 335.86514 341.40036">assumptiondoesnotholdthatthestatisticsofourmini-batcharesimilartothe</tspan><tspan
         id="tspan252"
         y="143.46201"
         x="0 4.9812999 7.7489104 12.73021 18.26543 23.246731 28.88357 32.81282 36.687275 41.668575 45.54303 48.310638 52.239891 56.114346 58.881954 63.309334 67.238586 72.865463 80.198929 84.626312 88.555557 91.323166 96.858391 102.39361 107.37491 113.01175 115.77936 120.20674 125.18804 129.09039 134.62561 137.39322 142.92844 150.76901 156.58318 161.01056 164.60606 171.53206 175.95944 180.38683 188.78131 197.91402 205.52446 208.84499 216.66264 223.72711 234.05833 236.82594 241.52829 246.51756 250.94495 254.84729 261.6358 265.56506 269.99243 274.41983 282.72165 289.52014 293.39459 301.24512 305.67249 310.65378 315.91006 319.78452 323.68686 326.45447 331.98969 337.52493 341.39938">globalstatistics.ResiduallearningbetweenMD-GRUlayersseemstocontribute</tspan><tspan
         id="tspan254"
         y="155.418"
         x="0 3.8744552 12.083637 15.958093 21.493313 29.158537 33.860886 38.840191 43.26757 47.169922 52.151222 54.918831 60.914326 63.681934 71.983772 77.51899 81.421341 86.133652 91.112961 95.540337 103.84217 108.26955 113.52582 117.40028 123.39577 128.93098 134.4662 138.36856 143.90378 147.80614 150.57375 154.50299 157.2706 162.80582 167.78712 170.55473 174.9861 180.98158 186.51682 190.94418 193.71179 197.58626 203.12148 207.54886 214.68904 219.11642 224.09773 229.63295 234.06033 239.04163 242.91608 247.34346 252.87868 257.85999 261.73444 264.50204 270.03726 278.24646 282.12091 287.65613 295.3114 302.50638 305.8269 313.64456 320.70905 331.40887 336.94409 341.92538">totheoverallimprovement.Surprisingly,neitherconcatenatingtheC-GRUnor</tspan><tspan
         id="tspan256"
         y="167.373"
         x="0 5.5352206 8.3028307 13.284131 17.71151 20.47912 26.014341 34.313187 38.187641 43.722862 51.477749 55.3801 59.80748 63.736729 68.164108 75.35611 80.33741 85.31871 89.193169 96.938087 101.91939 109.17615 111.94376 120.79652 124.67098 130.20621 137.95113 142.93242 146.83478 149.60239 154.58368 157.3513 162.88652 167.86781 173.96294 181.78059 188.8351 199.6246 205.15982 207.92743 216.7802 220.68256 225.10992 229.03918 234.5744 237.34201 244.54398 247.31158 256.16434 261.14566 269.99841 272.76602 281.06787 286.60309 290.50543 295.20776 300.19705 304.62442 313.4772 321.08762 323.85522 328.28262 332.70999">placingtheresetgateasintheoriginalGRUdidresultinanimprovedDice.</tspan><tspan
         id="tspan258"
         y="179.589"
         x="14.944 22.13899 27.67421 35.239807 40.775028 43.542641 48.523941 57.19738 62.732601 67.713898 71.64315 78.710617 84.245834 87.013451 90.887901 95.315285 99.217636 101.98524 107.52046 115.63998 120.62128 127.68875 133.22397 137.12633 141.5537 147.08893 150.99127 156.25153 160.67891 165.10628 169.03554 172.96478 175.73239 181.26761 189.38713 193.31638 197.19084 201.61823 210.29166 215.82687 219.72923 224.43158 229.41089 233.83826 242.5117 246.38615 254.50568 260.31985 267.88544 270.93002 274.83237 280.36758 283.13519 287.00964 290.05423 295.58945 298.35706 304.26288 308.69028 312.61951 318.43369 322.86105 327.28845 330.05606 335.03735 337.80496 340.57257">Thehighpassflteringaspreprocessingstepprovedtobefruitful,especially</tspan><tspan
         id="tspan260"
         y="191.54401"
         x="0 2.7676103 12.556861 16.431316 21.966537 30.647947 34.577194 39.004574 42.879032 46.753487 49.521095 55.056316 64.281685 71.476677 77.011894 81.43927 85.341621 94.023033 100.93907 109.62048 114.60178 120.137 122.90461 132.4169 136.29135 140.19371 145.175 147.94261 153.47784 157.90521 167.69447 170.73904 175.72034 183.86676 188.84805 193.82936 198.81065 208.04599 210.8136 214.68805 219.11543 223.01778 227.99908 231.87354 234.64114 239.62245 245.15767 249.08691 256.10855 263.30356 268.83878 273.26614 277.16849 285.84991 288.61752 293.04489 297.74725 303.00549 305.7731 311.30835 320.54367 323.31128 331.43976 336.42105 341.95627">inthesettingwhereweonlytrainedfor3000iterations,whereleavingitout</tspan><tspan
         id="tspan262"
         y="203.49899"
         x="0 3.9023504 8.32973 12.258979 17.794199 20.56181 24.436266 28.863646 38.035213 40.802826 49.974396 55.509613 64.127266 68.056511 72.483894 77.465195 85.767029 90.194405 95.450676 99.325127 104.30643 108.18089 110.94849 115.92979 125.10136 130.08266 137.59348 142.57477 145.34238 148.10999 154.51395 161.9859 165.91515 168.68275 174.21797 182.82567 187.80696 193.34218 196.1098 205.00441 209.9857 213.88806 216.65567 221.63696 224.40457 229.9398 234.9211 241.32506 246.86028 251.84158 255.71603 260.69733 267.10129 275.71893 280.9772 283.74481 287.67407 290.44168 295.9769 298.74451 306.80823 310.68268 315.11008 320.64529 326.18051 330.60788 336.1431 340.5705">resultedinnosegmentationatall.Usingonlyoriginaldata,avisibletendency</tspan><tspan
         id="tspan264"
         y="215.455"
         x="0 3.8744552 8.5768023 15.492839 20.47414 24.37649 29.911711 37.068844 39.836452 44.263832 48.193081 50.960693 55.94199 61.477211 68.624382 73.051758 78.033058 83.568283 86.335892 95.089035 100.90321 108.54851 111.59308 116.57437 122.1096 127.64481 133.18004 139.16557 144.70079 150.23601 157.32838 164.52338 167.29099 171.16544 179.92854 185.46376 189.36612 194.34741 199.88263 204.86394 210.38919 213.1568 215.92441 218.69202 222.56648 225.33409 229.76146 236.91859 243.83464 248.26201 251.02962 257.01517 262.82932 267.25671 270.02432 274.72665 285.13959 290.12088 292.88849 297.86978 303.86526 311.06027 316.59549 324.24078 332.54263 337.52393 340.29153">towardslesionscouldbefound,butwithprobabilitieswellbelow0.5.Themain</tspan><tspan
         id="tspan266"
         y="227.41"
         x="0 3.9023504 8.32973 13.311029 17.24028 22.221579 31.313448 38.508438 43.764706 52.579613 56.454071 61.979328 64.746941 72.232834 76.162086 80.036537 84.463921 93.555786 96.323395 103.8093 107.73855 116.26653 119.03414 127.33598 133.15015 138.13145 142.0338 145.90825 150.88956 156.14583 163.57692 168.0043 172.98561 182.07747 187.88168 195.86571 199.79497 204.22234 208.64972 217.74159 220.5092 229.59111 236.0947 238.8623 243.8436 250.16786 255.14915 261.47342 268.6684 274.20364 278.63101 282.53336 290.50742 295.21774 300.19904 302.96664 308.50186 312.92926 320.41516 325.39645 331.9877 335.86215 341.39737">reasonwhythisstepissoimportantcanbeseeninFig.3,wherevaluesofthe</tspan><tspan
         id="tspan268"
         y="239.36501"
         x="0 5.5352206 8.3028307 12.177286 16.604666 20.507015 24.934395 34.404842 37.172455 45.474289 50.455589 55.436886 63.789532 66.557144 69.324753 77.687355 85.989197 90.97049 94.899742 98.7742 101.54181 110.7353 115.7166 119.61894 124.60024 130.13547 135.67068 145.14113 149.56851 153.9959 157.89824 166.80481 171.7861 177.32133 186.79178 189.55939 199.02983 202.90428 208.43951 216.80211 221.78342 225.68576 228.45338 233.43468 236.19232 241.72754 246.70885 253.41168 257.34094 261.76831 266.7496 276.22006 281.20135 285.1037 290.08502 295.62024 301.15546 310.62589 314.22141 321.13745 326.11874 332.82156 340.29352 343.06113">flteredimageliemostlyaroundzeroandintheoriginalscanaroundtwo.All</tspan><tspan
         id="tspan270"
         y="251.32001"
         x="0 3.8744552 9.4096756 16.596695 23.512732 27.940111 30.707722 35.689022 40.94529 44.819744 51.508633 56.489933 62.294144 67.275444 72.810669 79.472656 85.007874 89.435257 93.040718 99.956757 104.93806 108.84041 116.85831 121.83961 125.74196 132.92899 135.69659 141.23181 143.99942 147.87387 150.64148 155.62279 158.3904 161.158 165.58539 170.01277 178.30763 182.18208 189.92302 195.45824 200.43954 205.97476 211.50998 214.27759 221.46461 226.99983 231.98114 235.85559 243.59653 246.6411 250.54346 255.52475 266.58621 274.32718 278.25641 282.13086 287.11218 292.6474 298.18262 303.16391 307.06625 315.36111 320.89633 325.87766 329.78 338.08182 343.06314">theweightsofournetworkareinitializedtohandledatafromastandardnormal</tspan><tspan
         id="tspan272"
         y="263.27499"
         x="0 5.5352206 8.3028307 12.23208 16.106535 20.008886 22.776497 28.311716 33.846939 37.721394 40.489002 45.470303 51.005524 57.499146 61.096642 66.631859 70.561111 73.32872 78.863945 87.017334 90.891792 96.42701 104.5804 110.11562 114.01797 118.99928 121.76688 127.3021 133.79573 139.33095 142.09856 145.97301 150.40039 154.30273 157.07036 162.60558 171.31288 175.18733 180.72256 188.87595 193.85725 197.7596 200.52721 205.50851 208.27612 213.81134 218.79265 225.28627 228.05388 236.35571 241.33701 246.31831 254.47171 261.38773 266.36905 271.90427 274.67188 283.93311 287.83545 292.26285 296.20206 301.72729 304.4949 312.10535 314.87296 324.13419 328.06345 333.59866 341.90048">distribution.Insidethebrain,flteringtheoriginalimagewouldresultinsums</tspan><tspan
         id="tspan274"
         y="275.23001"
         x="0 3.0445704 8.0258703 15.853485 20.555832 27.481833 32.184177 41.367702 44.412273 48.314625 53.295925 65.53299 69.960365 74.387749 78.290092 83.271393 89.964272 97.436218 101.36547 104.13308 109.6683 118.57487 127.49139 132.74767 138.00592 143.81013 148.2375 152.13986 157.95404 162.93533 165.70294 168.47055 176.8232 180.69765 185.67896 191.21417 196.19548 200.62285 205.88908 213.6888 218.6701 226.49771 230.42697 233.19458 238.17587 246.47771 251.45901 254.22662 263.69708 266.74164 272.27686 277.80212 282.23947 286.11392 288.88153 293.86282 303.3233 308.30463 317.76511 321.69434 327.22955 331.37799 340.84845">farawayfromzero.Usingahyperbolictangentorsigmoidfunctiononsucha</tspan><tspan
         id="tspan276"
         y="287.186"
         x="0 3.9023504 8.32973 12.258979 17.794199 20.56181 28.401381 35.596371 38.363979 41.131592 47.854351 51.756702 56.184082 60.058537 65.593758 69.496109 78.996445 87.942856 92.643211 97.624512 100.39212 105.92735 114.31984 118.74722 121.51483 126.49613 130.42538 138.80791 142.68236 151.62878 160.5752 165.55649 171.09172 180.58209 186.11731 190.54469 196.07991 200.50729 208.89978 217.84619 222.8255 227.25288 231.15523 240.37862 245.91383 250.89513 258.72473 263.70602 267.6084 272.58969 278.12491 280.89252 285.31989 290.57617 294.45062 301.18335 308.37833 313.91354 316.68115 320.82959 330.32993 337.52493 340.29254 343.06015">resultwillreturnavaluecloseto1andhenceaveryfatgradient,whichwill</tspan><tspan
         id="tspan278"
         y="299.14099"
         x="0 5.5352206 10.516521 17.708521 23.522696 31.26762 36.24892 41.784142 44.55175 52.306641 56.181095 64.479942 70.01516 74.442543 77.210152 86.06292 91.04422 96.579437 99.624008 105.15923 109.08848 116.29044 120.16489 125.70012 133.44504 140.36108 144.78845 147.55608 152.53737 157.79364 161.66809 168.92485 172.7993 181.09814 185.52553 190.50684 194.40918 198.31152 202.73891 207.16629 214.35829 217.40286 222.38416 229.61401 233.48848 239.0237 241.79131 249.0381 251.80571 260.65848 268.96729 272.01187 276.99316 280.92239 288.11441 296.41623 301.39755 306.93277 312.46799 316.89536 320.7977">notbeabletohelpadjusttheweightstocorrectforthisinafastmanner.</tspan><tspan
         id="tspan280"
         y="311.35699"
         x="14.944 20.479221 24.906601 27.67421 32.101589 36.528969 40.403423 43.171036 48.150341 56.752052 60.681301 65.662598 73.964432 79.499657 82.267265 85.034874 90.570099 99.725723 104.70702 110.24225 119.9518 123.85415 128.83545 134.37067 139.90588 144.88719 157.36336 162.89857 167.32596 170.37053 175.35182 179.25417 187.55602 192.53731 196.41176 199.17937 204.16068 213.87022 217.79947 223.33469 227.76207 232.18945 236.61684 241.0442 246.57944 251.00681 260.71637 264.59082 273.74646 279.56061 288.16232 292.03677 297.57199 306.17371 314.47556 319.45685 323.38611 331.43488 334.20248 342.50433">Selectivesamplingandrandomdeformationsucceededtobethemostim-</tspan><tspan
         id="tspan282"
         y="323.31201"
         x="0 5.8141732 10.795473 14.697824 18.572279 23.553579 28.809847 35.493755 38.261364 46.563198 52.098419 56.000771 60.703117 65.682426 70.109802 78.411636 82.83902 88.095284 91.969742 95.898994 101.47605 108.67104 114.20627 116.97388 121.1223 129.46698 132.23459 138.97328 143.40067 148.38197 152.31122 155.07883 157.84644 165.91415 170.34154 175.59979 181.13501 183.90262 188.88393 191.65154 197.18675 202.16806 207.70328 210.47089 217.69775 224.89275 227.66035 231.53481 239.87949 243.75394 249.28915 256.526 261.78226 267.31747 272.29877 279.53561 283.96298 286.73059 291.71191 295.64114 302.37985 305.14746 313.17035 318.70557 323.68686 326.45447 331.43579 336.97101 341.39838">portantimprovements,whichiseasilyexplainablewiththehugeclassimbalance</tspan><tspan
         id="tspan284"
         y="335.267"
         x="0 5.5352206 9.4375706 13.86495 17.794199 22.221579 27.477846 35.576443 38.344055 48.103416 53.084717 58.619938 66.746429 72.281654 77.262955 81.137405 90.34285 95.32415 100.85937 110.61874 114.49319 120.02841 128.67993 131.44754 136.14989 147.56902 152.55032 160.85216 165.83345 171.36867 176.6349 184.73351 189.7148 196.98352 200.85797 204.75037 209.73166 212.49927 218.03448 220.80209 226.33733 235.54277 241.07799 246.05928 249.93375 254.91504 261.9068 269.37875 277.53214 281.40659 286.9418 295.59332 300.03067 303.92307 308.90436 312.84357 316.77283 321.47318 326.45447 329.22208 331.98969 337.52493 342.50623">presentinourdataandthelowamountoftrainingdata.Asthecrossvalida-</tspan></text>
</g></svg>